<svg xmlns="http://www.w3.org/2000/svg" width="21.496" height="23.447" viewBox="0 0 21.496 23.447">
    <path d="M13.888 14.683l.668-.38a5.835 5.835 0 0 0 2.743-5.218L16.714.741a.8.8 0 0 0-.881-.687L4.837.825a.783.783 0 0 0-.777.804l.585 8.344a5.892 5.892 0 0 0 3.445 4.784l.714.283a1.567 1.567 0 0 1 1.007 1.29l.188 2.68-1.436.1a.5.5 0 0 0-.464.534l.104 1.492-1.464.103a.833.833 0 0 0-.77.888l.075 1.079a.218.218 0 0 0 .236.205l11.217-.787a.218.218 0 0 0 .205-.236l-.075-1.078a.833.833 0 0 0-.888-.771l-1.46.102-.106-1.495a.5.5 0 0 0-.534-.464l-1.435.1-.188-2.677a1.74 1.74 0 0 1 .872-1.422zm-1.336-4.404l-1.576-.692-1.464.905a.4.4 0 0 1-.61-.373l.159-1.705L7.762 7.31a.463.463 0 0 1-.14-.406.43.43 0 0 1 .312-.3l1.664-.366.64-1.573a.4.4 0 0 1 .718-.05l.852 1.468 1.703.13a.43.43 0 0 1 .35.253.4.4 0 0 1-.08.422l-1.128 1.273.394 1.666a.354.354 0 0 1-.138.399.447.447 0 0 1-.243.1z"
          data-name="Path 2038"/>
    <path d="M3.263 2.934l-2.9.204a.357.357 0 0 0-.335.412c.15 1.322.896 5.629 3.685 7.376a.175.175 0 0 0 .267-.157l-.107-1.52a.144.144 0 0 0-.062-.106 6.13 6.13 0 0 1-1.457-2.175 11.926 11.926 0 0 1-.674-2.09.234.234 0 0 1 .201-.292l1.49-.105a.18.18 0 0 0 .155-.177l-.084-1.188a.185.185 0 0 0-.179-.182z"
          data-name="Path 2039"/>
    <path d="M18.01 8.147a.21.21 0 0 0-.047.115l.107 1.519a.175.175 0 0 0 .286.118c2.517-2.12 2.652-6.516 2.617-7.818a.373.373 0 0 0-.387-.362l-2.9.204a.18.18 0 0 0-.155.177l.085 1.215a.18.18 0 0 0 .178.155l1.492-.105a.234.234 0 0 1 .24.26 14.89 14.89 0 0 1-.376 2.165 6.537 6.537 0 0 1-1.14 2.357z"
          data-name="Path 2040"/>
</svg>
