<svg xmlns="http://www.w3.org/2000/svg" width="22.614" height="22.303" viewBox="0 0 22.614 22.303">
    <defs>
        <style>
            .cls-1{stroke:#000;stroke-width:.25px}
        </style>
    </defs>
    <g id="noun_Shopping_Cart_740925" data-name="noun_Shopping Cart_740925" transform="translate(.125 .125)">
        <path id="Path_20"
              d="M54.829 53.19H42.51l-.475-1.941H55.81l2-8.726L40.064 40.4l-.813-4.747h-3.775v.9h3.012l.639 3.729h-.032l1.985 10.967h.02l.48 1.951c-.04 0-.081-.006-.121-.006a2.265 2.265 0 1 0 1.8.9h9.766a2.254 2.254 0 1 0 1.8-.9zm-14.257-9.828l-.349-2.036L56.706 43.3l-1.616 7.042H41.836zm.886 13.438a1.352 1.352 0 1 1 1.352-1.352 1.353 1.353 0 0 1-1.352 1.352zm13.371 0a1.352 1.352 0 1 1 1.351-1.352 1.353 1.353 0 0 1-1.351 1.352z"
              class="cls-1" data-name="Path 20" transform="translate(-35.476 -35.649)"/>
    </g>
</svg>
