<svg xmlns="http://www.w3.org/2000/svg" width="26.671" height="24.3" viewBox="0 0 26.671 24.3"><g transform="translate(0.15 0.15)"><path d="M58.293,54.739H43.768l-.56-2.112h16.24l2.361-9.5L40.885,40.815l-.959-5.166h-4.45v.985h3.551l.753,4.059-.038,0,2.342,11.938h.027l.561,2.119c-.048,0-.095-.007-.143-.007a2.463,2.463,0,1,0,2.66,2.456,2.319,2.319,0,0,0-.535-1.471H56.168a2.32,2.32,0,0,0-.536,1.471,2.669,2.669,0,1,0,2.661-2.455Zm-16.809-10.7-.411-2.216,19.432,2.151L58.6,51.642H42.974Zm1.045,14.622a1.476,1.476,0,1,1,1.593-1.471A1.538,1.538,0,0,1,42.529,58.665Zm15.764,0a1.476,1.476,0,1,1,1.593-1.471A1.538,1.538,0,0,1,58.293,58.665Z" transform="translate(-35.476 -35.649)" stroke="#000" stroke-width="0.3"/></g></svg>