<svg xmlns="http://www.w3.org/2000/svg" width="21.991" height="21.991" viewBox="0 0 21.991 21.991">
    <defs>
        <style>
            .cls-1{fill:#475993}
        </style>
    </defs>
    <path id="facebook" d="M19.03 0H2.965A2.963 2.963 0 0 0 0 2.963v16.065a2.963 2.963 0 0 0 2.963 2.963h7.923l.014-7.858H8.86a.482.482 0 0 1-.482-.48l-.01-2.533a.482.482 0 0 1 .482-.484h2.038V8.188A4 4 0 0 1 15.157 3.8h2.079a.482.482 0 0 1 .482.482v2.137a.482.482 0 0 1-.481.482H15.96c-1.378 0-1.645.655-1.645 1.616v2.119h3.028a.482.482 0 0 1 .478.538l-.3 2.533a.482.482 0 0 1-.478.425h-2.714l-.014 7.858h4.715a2.963 2.963 0 0 0 2.963-2.963V2.963A2.963 2.963 0 0 0 19.03 0z" class="cls-1" transform="translate(-.002)"/>
</svg>
