<svg xmlns="http://www.w3.org/2000/svg" width="26.521" height="26.521" data-name="Freshly Arrived"
     viewBox="0 0 26.521 26.521">
    <path d="M26.521 13.26l-2.586-2.851.818-3.779-3.669-1.193-1.193-3.669-3.779.818L13.26 0l-2.851 2.586-3.779-.818-1.193 3.669L1.768 6.63l.818 3.779L0 13.26l2.586 2.851-.818 3.779 3.669 1.193 1.193 3.669 3.779-.818 2.851 2.586 2.851-2.586 3.779.818 1.193-3.669 3.669-1.193-.818-3.779zm-8.84 1.105h-3.315v3.315h-2.21v-3.314H8.84v-2.21h3.315V8.84h2.21v3.315h3.315z"
          data-name="Path 2037"/>
</svg>
