<svg xmlns="http://www.w3.org/2000/svg" width="26.66" height="26.66" viewBox="0 0 26.66 26.66">
    <defs>
        <style>
            .cls-1{fill-rule:evenodd}
        </style>
    </defs>
    <g id="Hearts_835204">
        <g id="Group_1451" data-name="Group 1451">
            <g id="Group_1450" data-name="Group 1450">
                <g id="Group_1449" data-name="Group 1449">
                    <path id="Path_2049"
                          d="M13.4 8.667a4.668 4.668 0 1 0-6.6 6.6l7.3 7.3 7.3-7.3a4.668 4.668 0 1 0-6.6-6.6l-.695.695z"
                          class="cls-1" data-name="Path 2049" transform="translate(-.76 -1.022)"/>
                    <path id="Path_2050"
                          d="M12.9.43v1.72a.43.43 0 1 0 .86 0V.43a.43.43 0 0 0-.86 0zm6.508 1.513l-.86 1.49a.43.43 0 1 0 .745.43l.86-1.49a.43.43 0 0 0-.745-.43zm4.879 4.564l-1.49.86a.43.43 0 0 0 .43.745l1.49-.86a.43.43 0 0 0-.43-.745zM26.23 12.9h-1.72a.43.43 0 1 0 0 .86h1.72a.43.43 0 1 0 0-.86zm-1.513 6.508l-1.49-.86a.43.43 0 1 0-.43.745l1.49.86a.43.43 0 0 0 .43-.745zm-4.564 4.879l-.86-1.49a.43.43 0 1 0-.745.43l.86 1.49a.43.43 0 1 0 .745-.43zM13.76 26.23v-1.72a.43.43 0 1 0-.86 0v1.72a.43.43 0 1 0 .86 0zm-6.508-1.513l.86-1.49a.43.43 0 1 0-.745-.43l-.86 1.49a.43.43 0 1 0 .745.43zm-4.879-4.565l1.49-.86a.43.43 0 1 0-.43-.745l-1.49.86a.43.43 0 0 0 .43.745zM.43 13.76h1.72a.43.43 0 1 0 0-.86H.43a.43.43 0 1 0 0 .86zm1.513-6.508l1.49.86a.43.43 0 0 0 .43-.745l-1.49-.86a.43.43 0 1 0-.43.745zm4.565-4.879l.86 1.49a.43.43 0 0 0 .745-.43l-.86-1.49a.43.43 0 0 0-.745.43z"
                          class="cls-1" data-name="Path 2050"/>
                </g>
            </g>
        </g>
    </g>
</svg>
