<svg xmlns="http://www.w3.org/2000/svg" width="21.4" height="21.4" viewBox="0 0 21.4 21.4">
    <defs>
        <style>
            .cls-1{fill:#26358c}
        </style>
    </defs>
    <g id="noun_help_150405" transform="translate(-23.3 -24.3)">
        <g id="Group_143" data-name="Group 143" transform="translate(23.3 24.3)">
            <path id="Path_21"
                  d="M44.389 46.286a.835.835 0 0 1-.833-.833v-1.207a.835.835 0 0 1 .833-.833 1.624 1.624 0 1 0-1.624-1.624.833.833 0 0 1-1.665 0 3.289 3.289 0 1 1 4.122 3.206v.458a.835.835 0 0 1-.833.833z"
                  class="cls-1" data-name="Path 21" transform="translate(-33.689 -32.588)"/>
            <path id="Path_22"
                  d="M47.833 60.409a.824.824 0 0 1-.583-1.416.886.886 0 0 1 1.166 0 .833.833 0 0 1-.583 1.416z"
                  class="cls-1" data-name="Path 22" transform="translate(-37.133 -44.422)"/>
            <path id="Path_23"
                  d="M34 45.7A10.7 10.7 0 1 1 44.7 35 10.7 10.7 0 0 1 34 45.7zm0-19.735A9.035 9.035 0 1 0 43.035 35 9.026 9.026 0 0 0 34 25.965z"
                  class="cls-1" data-name="Path 23" transform="translate(-23.3 -24.3)"/>
        </g>
    </g>
</svg>
