<svg xmlns="http://www.w3.org/2000/svg" width="20.486" height="24.654" viewBox="0 0 20.486 24.654">
    <g data-name="Group 1448">
        <path d="M1.565 10.931l-1.043.147a.527.527 0 1 0 .146 1.043l1.043-.147a.527.527 0 0 0-.146-1.043z"
              data-name="Path 2041"/>
        <path d="M19.817 8.366l-1.043.147a.527.527 0 0 0 .147 1.042l1.043-.146a.527.527 0 1 0-.147-1.043z"
              data-name="Path 2042"/>
        <path d="M8.366.669l.146 1.043a.527.527 0 1 0 1.043-.147L9.408.522A.527.527 0 1 0 8.366.67z"
              data-name="Path 2043"/>
        <path d="M3 5.438a.509.509 0 0 0 .729-.102.509.509 0 0 0-.103-.73l-1.095-.83a.509.509 0 0 0-.73.102.509.509 0 0 0 .099.735z"
              data-name="Path 2044"/>
        <path d="M17.49 15.048a.509.509 0 0 0-.73.102.509.509 0 0 0 .099.736l1.1.829a.509.509 0 0 0 .73-.103.509.509 0 0 0-.103-.73z"
              data-name="Path 2045"/>
        <path d="M15.877 1.9l-.83 1.1a.509.509 0 0 0 .103.73.52.52 0 0 0 .388.105.52.52 0 0 0 .347-.208l.826-1.095a.509.509 0 0 0-.103-.73.509.509 0 0 0-.731.098z"
              data-name="Path 2046"/>
        <path d="M4.604 16.859l-.829 1.1a.509.509 0 0 0 .103.73.52.52 0 0 0 .387.105.52.52 0 0 0 .348-.207l.825-1.096a.509.509 0 0 0-.102-.73.509.509 0 0 0-.732.098z"
              data-name="Path 2047"/>
        <path d="M8.876 3.549a6.729 6.729 0 0 0-5.323 7.156A6.615 6.615 0 0 0 6.37 15.6a3.732 3.732 0 0 1 1.547 2.497l.135.965 6.78-.953-.136-.965a3.564 3.564 0 0 1 .754-2.765 6.657 6.657 0 0 0 1.45-5.207 6.73 6.73 0 0 0-8.023-5.622z"
              data-name="Path 2048"/>
        <path d="M8.172 20.107l6.78-.953.146 1.043-6.78.953z" data-name="Rectangle 165"/>
        <path d="M8.428 21.932l6.78-.953.146 1.043-6.779.953z" data-name="Rectangle 166"/>
        <path d="M9.729 23.611l4.694-.66.146 1.044-4.694.66z" data-name="Rectangle 167"/>
    </g>
</svg>
