<svg xmlns="http://www.w3.org/2000/svg" width="25.984" height="23.886" viewBox="0 0 25.984 23.886">
    <defs>
        <style>
            .cls-1{stroke:#000;stroke-width:.75px}
        </style>
    </defs>
    <g id="noun_Love_862131" transform="translate(.375 .375)">
        <path id="Path_19"
              d="M40.611 27a7.535 7.535 0 0 0-5.034 1.913 7.582 7.582 0 0 0-12.617 5.67c0 3.674 1.779 5.693 4.71 8.583 1.844 1.818 7.6 6.825 7.654 6.875a.385.385 0 0 0 .506 0c.058-.05 5.81-5.057 7.654-6.875 2.931-2.889 4.71-4.909 4.71-8.583A7.591 7.591 0 0 0 40.611 27zm2.332 15.617c-1.607 1.584-6.231 5.632-7.366 6.622-1.135-.99-5.76-5.038-7.366-6.622-3.045-3-4.48-4.774-4.48-8.034a6.81 6.81 0 0 1 11.576-4.867.386.386 0 0 0 .54 0 6.81 6.81 0 0 1 11.576 4.867c0 3.259-1.435 5.031-4.48 8.033z"
              class="cls-1" data-name="Path 19" transform="translate(-22.96 -26.999)"/>
    </g>
</svg>
