<svg xmlns="http://www.w3.org/2000/svg" width="33.643" height="33.215" viewBox="0 0 33.643 33.215">
    <defs>
        <style>
            .cls-1{fill:#fff}
        </style>
    </defs>
    <g id="noun_Shopping_Cart_740925" data-name="noun_Shopping Cart_740925">
        <path id="Path_20" d="M64.625 62.068H46.07l-.715-2.923H66.1L69.119 46l-26.733-3.2-1.225-7.149h-5.685v1.363h4.536l.962 5.617-.048-.006 2.991 16.522h.035l.717 2.932c-.061 0-.121-.01-.183-.01A3.412 3.412 0 1 0 47.2 63.43h14.71a3.394 3.394 0 1 0 2.715-1.362zm-21.474-14.8l-.525-3.068 24.825 2.976-2.434 10.607H45.055zM44.487 67.5a2.036 2.036 0 1 1 2.036-2.036 2.038 2.038 0 0 1-2.036 2.036zm20.139 0a2.036 2.036 0 1 1 2.035-2.036 2.038 2.038 0 0 1-2.036 2.036z" class="cls-1" data-name="Path 20" transform="translate(-35.476 -35.649)"/>
    </g>
</svg>
