<svg xmlns="http://www.w3.org/2000/svg" width="28.137" height="25.86" viewBox="0 0 28.137 25.86">
    <defs>
        <style>
            .cls-1{fill:#fff;stroke:#fff;stroke-width:.75px}
        </style>
    </defs>
    <g id="noun_Love_862131" transform="translate(.375 .375)">
        <path id="Path_19" d="M42.117 27a8.178 8.178 0 0 0-5.463 2.077 8.229 8.229 0 0 0-13.694 6.152c0 3.988 1.931 6.179 5.112 9.315 2 1.974 8.245 7.407 8.307 7.462a.418.418 0 0 0 .549 0c.063-.055 6.305-5.488 8.307-7.462 3.181-3.136 5.112-5.328 5.112-9.315A8.239 8.239 0 0 0 42.117 27zm2.531 16.949c-1.744 1.719-6.763 6.112-7.994 7.187-1.231-1.075-6.251-5.468-7.994-7.187-3.306-3.259-4.86-5.182-4.86-8.72a7.392 7.392 0 0 1 12.564-5.282.419.419 0 0 0 .586 0 7.392 7.392 0 0 1 12.56 5.282c.001 3.538-1.557 5.461-4.862 8.719z" class="cls-1" data-name="Path 19" transform="translate(-22.96 -26.999)"/>
    </g>
</svg>
