<svg xmlns="http://www.w3.org/2000/svg" width="26.531" height="26.531" viewBox="0 0 26.531 26.531">
    <defs>
        <style>
            .cls-1{fill:#cb2027}.cls-2{fill:#f1f2f2}
        </style>
    </defs>
    <g id="pinterest" transform="translate(-.001 -.002)">
        <circle id="Ellipse_21" cx="13.266" cy="13.266" r="13.266" class="cls-1" data-name="Ellipse 21" transform="translate(.001 .002)"/>
        <g id="Group_1532" data-name="Group 1532" transform="translate(6.858 5.817)">
            <path id="Path_2218" d="M36.479 36.541a4.486 4.486 0 0 1-2.211-1.052c-.432 2.268-.961 4.442-2.525 5.578-.484-3.428.709-6 1.263-8.735-.944-1.589.114-4.788 2.1-4 2.451.969-2.122 5.909.948 6.526 3.2.644 4.513-5.56 2.525-7.578-2.871-2.914-8.358-.066-7.683 4.1.164 1.02 1.218 1.329.421 2.736-1.838-.407-2.386-1.856-2.315-3.788a6.184 6.184 0 0 1 5.578-5.684c3.461-.387 6.709 1.271 7.157 4.526.5 3.674-1.562 7.653-5.263 7.367z" class="cls-2" data-name="Path 2218" transform="translate(-29 -24.593)"/>
        </g>
    </g>
</svg>
