<svg xmlns="http://www.w3.org/2000/svg" width="21.671" height="23.808" viewBox="0 0 21.671 23.808">
    <defs>
        <style>
            .cls-1{stroke:#000;stroke-width:.25px}
        </style>
    </defs>
    <g id="noun_Telephone_386075" transform="translate(-7.012 -2.427)">
        <g id="Group_3" data-name="Group 3" transform="translate(7.22 2.552)">
            <path id="Path_1"
                  d="M23.827 26.11c-3.64 0-8.529-2.8-11.89-6.8C8.5 15.208 6.591 9.667 7.408 6.133c.186-.8 2.43-2.51 3.4-3.216a1.6 1.6 0 0 1 1.017-.365 1.546 1.546 0 0 1 1.187.548l.046.055 2.131 5.651a2.117 2.117 0 0 1-.5 2.359l-1.554 1.3a5.412 5.412 0 0 0 1.338 3.149c1.474 2.064 3.509 3.746 4.548 3.763l1.515-1.273a1.834 1.834 0 0 1 1.2-.422 2.416 2.416 0 0 1 1.143.3l5.168 3.033.046.055a1.572 1.572 0 0 1-.179 2.2c-.862.845-2.928 2.787-3.754 2.827-.108.011-.22.013-.333.013zm-12-22.724a.769.769 0 0 0-.493.18l-.023.018A14.289 14.289 0 0 0 8.22 6.323c-.762 3.3 1.07 8.534 4.356 12.45 3.306 3.941 8.112 6.657 11.545 6.5a14.271 14.271 0 0 0 3.22-2.6l.024-.021a.737.737 0 0 0 .129-.985l-5.024-2.952a1.275 1.275 0 0 0-1.394.03l-1.717 1.442-.124.015a1.629 1.629 0 0 1-.2.011c-1.514 0-3.783-2.069-5.242-4.112-.705-.988-1.827-2.82-1.422-4 .045-.125.045-.125 1.781-1.574a1.29 1.29 0 0 0 .267-1.386l-.011-.026-2.079-5.524a.716.716 0 0 0-.505-.205z"
                  class="cls-1" data-name="Path 1" transform="translate(-7.22 -2.552)"/>
        </g>
    </g>
</svg>
