<svg xmlns="http://www.w3.org/2000/svg" width="34.991" height="31.031" viewBox="0 0 34.991 31.031"><g transform="translate(0 0)"><path d="M34.593,32.541V29.249a.58.58,0,0,0-.023-.132c0-.018,0-.036-.009-.053a.584.584,0,0,0-.1-.18l-4.684-5.855a.586.586,0,0,0-.457-.22h-4.1v-4.1a.585.585,0,0,0-.585-.585H16.072l1.776-3.355a5.211,5.211,0,0,0-1.09-6.345,5.855,5.855,0,0,0-7.656,0,5.211,5.211,0,0,0-1.09,6.345l1.776,3.355H1.22a.585.585,0,0,0-.585.585V32.541a2.154,2.154,0,0,0,.172,2.977.585.585,0,0,0,.414.172H3.036a2.927,2.927,0,0,0,5.737,0h1.289a2.927,2.927,0,0,0,5.737,0H26.456a2.927,2.927,0,0,0,5.737,0h1.816a.585.585,0,0,0,.414-.172A2.154,2.154,0,0,0,34.593,32.541Zm-1.9-4-4.539-.412V26.321h2.763ZM9.868,9.31a4.684,4.684,0,0,1,6.124,0,4.031,4.031,0,0,1,.822,4.912L12.93,21.557,9.046,14.222A4.031,4.031,0,0,1,9.868,9.31ZM5.9,36.86A1.756,1.756,0,1,1,7.661,35.1,1.756,1.756,0,0,1,5.9,36.86Zm7.026,0A1.756,1.756,0,1,1,14.686,35.1,1.756,1.756,0,0,1,12.93,36.86Zm0-4.684a2.932,2.932,0,0,0-2.868,2.342H8.772a2.927,2.927,0,0,0-5.737,0H1.486a1.009,1.009,0,0,1,.148-1.343.586.586,0,0,0,.172-.414v-.585h.585a.585.585,0,1,0,0-1.171H1.806V19.3h8.6l2,3.787a.585.585,0,0,0,1.035,0l2-3.787h8.6V34.518H15.8a2.932,2.932,0,0,0-2.868-2.342ZM29.324,36.86A1.756,1.756,0,1,1,31.08,35.1,1.756,1.756,0,0,1,29.324,36.86Zm4.418-2.342h-1.55a2.927,2.927,0,0,0-5.737,0h-1.23V23.979h3.817l.937,1.171H27.567a.585.585,0,0,0-.585.585v2.927a.586.586,0,0,0,.532.583l5.908.537v1.222h-.585a.585.585,0,0,0,0,1.171h.585v.585a.6.6,0,0,0,.168.411A1.011,1.011,0,0,1,33.742,34.518Z" transform="translate(-0.118 -7)"/><path d="M22.623,13.812a2.812,2.812,0,1,0-2.812,2.812,2.812,2.812,0,0,0,2.812-2.812Zm-4.5,0A1.687,1.687,0,1,1,19.812,15.5,1.687,1.687,0,0,1,18.125,13.812Z" transform="translate(-7.037 -8.751)"/></g></svg>