<svg xmlns="http://www.w3.org/2000/svg" width="41.379" height="36.696" data-name="noun_Delivery truck location_1418922"
     viewBox="0 0 41.379 36.696">
    <g data-name="Layer 1">
        <path d="M40.769 30.2v-3.889a.686.686 0 0 0-.027-.157c0-.021 0-.043-.011-.063a.69.69 0 0 0-.114-.213l-5.535-6.924a.694.694 0 0 0-.541-.26h-4.85v-4.846a.692.692 0 0 0-.692-.692H18.867l2.1-3.967a6.162 6.162 0 0 0-1.289-7.5 6.924 6.924 0 0 0-9.054 0 6.162 6.162 0 0 0-1.289 7.5l2.1 3.967H1.303a.692.692 0 0 0-.692.692V30.2a2.547 2.547 0 0 0 .2 3.52.692.692 0 0 0 .49.2H3.45a3.462 3.462 0 0 0 6.784 0h1.525a3.462 3.462 0 0 0 6.784 0h12.6a3.462 3.462 0 0 0 6.784 0h2.147a.692.692 0 0 0 .49-.2 2.547 2.547 0 0 0 .205-3.52zm-2.248-4.73l-5.368-.488v-2.133h3.268zM11.53 2.732a5.539 5.539 0 0 1 7.242 0 4.767 4.767 0 0 1 .972 5.808l-4.592 8.674-4.594-8.674a4.767 4.767 0 0 1 .972-5.808zm-4.688 32.58a2.077 2.077 0 1 1 2.077-2.077 2.077 2.077 0 0 1-2.077 2.077zm8.309 0a2.077 2.077 0 1 1 2.077-2.077 2.077 2.077 0 0 1-2.077 2.077zm0-5.539a3.468 3.468 0 0 0-3.392 2.77h-1.525a3.462 3.462 0 0 0-6.784 0H1.618a1.193 1.193 0 0 1 .175-1.588.692.692 0 0 0 .2-.49v-.692h.692a.693.693 0 1 0 0-1.385h-.689V14.54h10.172l2.371 4.478a.692.692 0 0 0 1.224 0l2.371-4.478h10.172v18h-9.763a3.468 3.468 0 0 0-3.392-2.77zm19.387 5.539a2.077 2.077 0 1 1 2.077-2.077 2.077 2.077 0 0 1-2.077 2.077zm5.225-2.77H37.93a3.462 3.462 0 0 0-6.784 0h-1.455V20.079h4.514l1.108 1.385h-2.852a.692.692 0 0 0-.692.692v3.462a.693.693 0 0 0 .629.69l6.987.635v1.445h-.693a.693.693 0 0 0 0 1.385h.69v.692a.708.708 0 0 0 .2.485 1.2 1.2 0 0 1 .18 1.592z"
              data-name="Path 55"/>
        <path d="M18.613 6.232a3.462 3.462 0 1 0-3.462 3.462 3.462 3.462 0 0 0 3.462-3.462zm-5.539 0a2.077 2.077 0 1 1 2.077 2.077 2.077 2.077 0 0 1-2.077-2.077z"
              data-name="Path 56"/>
    </g>
</svg>
