<svg xmlns="http://www.w3.org/2000/svg" width="27.51" height="22.884" viewBox="0 0 27.51 22.884">
    <defs>
        <style>
            .cls-1{fill:#76a9ea}
        </style>
    </defs>
    <path id="twitter" d="M27.073 37.153a10.894 10.894 0 0 1-1.9.64 5.914 5.914 0 0 0 1.561-2.486.31.31 0 0 0-.454-.361 10.946 10.946 0 0 1-2.9 1.2.739.739 0 0 1-.181.023.769.769 0 0 1-.508-.194 5.931 5.931 0 0 0-3.924-1.481 6.341 6.341 0 0 0-1.879.29 5.746 5.746 0 0 0-3.873 4.14 6.327 6.327 0 0 0-.141 2.184.212.212 0 0 1-.053.166.22.22 0 0 1-.164.074h-.017a15.552 15.552 0 0 1-10.689-5.714.31.31 0 0 0-.508.04 5.938 5.938 0 0 0 .965 7.209 5.315 5.315 0 0 1-1.353-.524.31.31 0 0 0-.461.267A5.938 5.938 0 0 0 4.059 48.1h-.127a5.337 5.337 0 0 1-1-.1.31.31 0 0 0-.354.4 5.944 5.944 0 0 0 4.7 4.043 10.944 10.944 0 0 1-6.13 1.861H.459a.454.454 0 0 0-.444.342.47.47 0 0 0 .225.519 16.279 16.279 0 0 0 8.18 2.206 16.5 16.5 0 0 0 6.99-1.483 15.436 15.436 0 0 0 5.115-3.833 16.8 16.8 0 0 0 3.132-5.245 16.569 16.569 0 0 0 1.065-5.741v-.09a1.009 1.009 0 0 1 .378-.779 11.723 11.723 0 0 0 2.358-2.588.31.31 0 0 0-.384-.456z" class="cls-1" transform="translate(0 -34.491)"/>
</svg>
