<svg xmlns="http://www.w3.org/2000/svg" width="24" height="24" viewBox="0 0 24 24"><g transform="translate(0 0)"><path d="M30.63,18.589a12,12,0,1,0,12,12A12.014,12.014,0,0,0,30.63,18.589Zm-5.187,21.3V37.649c0-1.941,1.856-3.784,3.581-4.674a.674.674,0,0,0,.032-1.18,4.445,4.445,0,0,1-2.027-3.887c0-2.384,1.615-4.324,3.6-4.324s3.6,1.94,3.6,4.324a4.45,4.45,0,0,1-2.019,3.882.674.674,0,0,0,.035,1.18c1.72.884,3.571,2.725,3.571,4.679v2.239a10.62,10.62,0,0,1-10.374,0Zm11.722-.9V37.649c0-2.176-1.6-4.139-3.4-5.347a6,6,0,0,0,1.816-4.394c0-3.127-2.22-5.672-4.948-5.672s-4.948,2.545-4.948,5.672a6,6,0,0,0,1.824,4.4c-1.811,1.212-3.41,3.175-3.41,5.34v1.343a10.652,10.652,0,1,1,13.07,0Z" transform="translate(-18.63 -18.589)"/></g></svg>