<svg xmlns="http://www.w3.org/2000/svg" width="26.079" height="26.079" viewBox="0 0 26.079 26.079">
    <path d="M13.04 0a13.04 13.04 0 1 0 13.04 13.04A13.054 13.054 0 0 0 13.04 0zM7.403 23.144v-2.433c0-2.11 2.017-4.112 3.891-5.079a.732.732 0 0 0 .035-1.282 4.831 4.831 0 0 1-2.2-4.223c0-2.591 1.755-4.7 3.912-4.7s3.912 2.108 3.912 4.7a4.835 4.835 0 0 1-2.194 4.219.732.732 0 0 0 .038 1.282c1.869.961 3.881 2.961 3.881 5.084v2.433a11.54 11.54 0 0 1-11.273 0zm12.737-.974v-1.459c0-2.365-1.733-4.5-3.7-5.81a6.521 6.521 0 0 0 1.974-4.775c0-3.4-2.412-6.163-5.377-6.163S7.66 6.728 7.66 10.126a6.517 6.517 0 0 0 1.984 4.785c-1.968 1.317-3.706 3.45-3.706 5.8v1.46a11.575 11.575 0 1 1 14.2 0z"
          data-name="Path 18"/>
</svg>
