<svg xmlns="http://www.w3.org/2000/svg" width="23.648" height="24.968" viewBox="0 0 23.648 24.968">
    <path d="M11.825 0a2.636 2.636 0 1 0 2.631 2.631A2.628 2.628 0 0 0 11.825 0zM9.508 5.925A2.4 2.4 0 0 0 6.901 8.5a17.07 17.07 0 0 0-1.234.291 9.872 9.872 0 0 0-4.132 2.069A4.554 4.554 0 0 0 .01 14.527a.673.673 0 0 0 .7.675.685.685 0 0 0 .605-.768 3.1 3.1 0 0 1 1.117-2.607 8.484 8.484 0 0 1 3.573-1.769c.291-.081.582-.163.9-.221V15.1a2.211 2.211 0 0 0 1.315 2.014v2.351a23.43 23.43 0 0 0 2.957.326v-1.027h1.3v1.083a23.839 23.839 0 0 0 2.957-.186V17.1a2.181 2.181 0 0 0 1.315-2v-4.31l5.587 1.723L18.064 7.9l-1.315.617a2.417 2.417 0 0 0-2.642-2.6h-4.6zm13.421 8.555a.679.679 0 0 0-.594.71 3.088 3.088 0 0 1-1.117 2.6 8.489 8.489 0 0 1-3.573 1.781 23.554 23.554 0 0 1-10.243.081l.477-.559-6.565-1.97 4.272 4.609.815-.943a24.937 24.937 0 0 0 11.582.047 9.749 9.749 0 0 0 4.132-2.084 4.531 4.531 0 0 0 1.524-3.652.68.68 0 0 0-.71-.617zm-14.713 7v1.571c0 1.117 1.653 1.758 2.957 1.921V21.79a25.752 25.752 0 0 1-2.957-.314zm7.217.175a24.178 24.178 0 0 1-2.957.175v3.143c1.315-.175 2.957-.815 2.957-1.921z"
          data-name="Path 2060"/>
</svg>
