<svg xmlns="http://www.w3.org/2000/svg" id="whatsapp" width="23.203" height="23.203" viewBox="0 0 23.203 23.203">
    <defs>
        <style>
            .cls-1{fill:#4caf50}.cls-2{fill:#fafafa}
        </style>
    </defs>
    <path id="Path_2219" d="M11.6 0a11.594 11.594 0 0 0-9.39 18.4L.763 22.712l4.459-1.426A11.6 11.6 0 1 0 11.6 0z" class="cls-1" data-name="Path 2219"/>
    <path id="Path_2220" d="M120.758 128.165a3.274 3.274 0 0 1-2.277 1.637c-.606.129-1.4.232-4.063-.873a14.533 14.533 0 0 1-5.776-5.1 6.626 6.626 0 0 1-1.378-3.5 3.7 3.7 0 0 1 1.186-2.824 1.686 1.686 0 0 1 1.186-.416c.144 0 .273.007.389.013.341.015.512.035.737.573.28.674.961 2.339 1.043 2.51a.691.691 0 0 1 .049.628 2 2 0 0 1-.376.532c-.171.2-.334.348-.5.56-.157.184-.334.381-.136.722a10.3 10.3 0 0 0 1.882 2.339 8.529 8.529 0 0 0 2.721 1.678.734.734 0 0 0 .818-.129 14.036 14.036 0 0 0 .906-1.2.647.647 0 0 1 .832-.252c.313.109 1.971.928 2.312 1.1s.566.252.648.4a2.889 2.889 0 0 1-.203 1.602z" class="cls-2" data-name="Path 2220" transform="translate(-102.403 -111.782)"/>
</svg>
