<svg xmlns="http://www.w3.org/2000/svg" width="26.776" height="24.6" viewBox="0 0 26.776 24.6"><g transform="translate(0.3 0.3)"><path d="M41.27,27a7.816,7.816,0,0,0-5.222,1.985A7.865,7.865,0,0,0,22.96,34.865c0,3.811,1.846,5.906,4.885,8.9,1.913,1.886,7.88,7.08,7.94,7.132a.4.4,0,0,0,.525,0c.06-.052,6.027-5.245,7.94-7.132,3.04-3,4.886-5.092,4.886-8.9A7.875,7.875,0,0,0,41.27,27Zm2.419,16.2c-1.667,1.643-6.464,5.842-7.641,6.869-1.177-1.027-5.975-5.226-7.641-6.869-3.159-3.115-4.648-4.952-4.648-8.334a7.065,7.065,0,0,1,12.008-5.049.4.4,0,0,0,.56,0,7.065,7.065,0,0,1,12.008,5.049C48.337,38.247,46.848,40.085,43.689,43.2Z" transform="translate(-22.96 -26.999)" stroke="#000" stroke-width="0.6"/></g></svg>